<?xml version="1.0" encoding="UTF-8" standalone="no"?>
<!DOCTYPE svg PUBLIC "-//W3C//DTD SVG 1.1//EN"
 "http://www.w3.org/Graphics/SVG/1.1/DTD/svg11.dtd">
<!-- Generated by graphviz version 2.42.3 (20191010.1750)
 -->
<!-- Title: snakemake_dag Pages: 1 -->
<svg width="768pt" height="260pt"
 viewBox="0.00 0.00 768.00 260.00" xmlns="http://www.w3.org/2000/svg" xmlns:xlink="http://www.w3.org/1999/xlink">
<g id="graph0" class="graph" transform="scale(1 1) rotate(0) translate(4 256)">
<title>snakemake_dag</title>
<polygon fill="white" stroke="transparent" points="-4,4 -4,-256 764,-256 764,4 -4,4"/>
<!-- 0 -->
<g id="node1" class="node">
<title>0</title>
<path fill="none" stroke="#56d8c9" stroke-width="2" d="M232.5,-36C232.5,-36 202.5,-36 202.5,-36 196.5,-36 190.5,-30 190.5,-24 190.5,-24 190.5,-12 190.5,-12 190.5,-6 196.5,0 202.5,0 202.5,0 232.5,0 232.5,0 238.5,0 244.5,-6 244.5,-12 244.5,-12 244.5,-24 244.5,-24 244.5,-30 238.5,-36 232.5,-36"/>
<text text-anchor="middle" x="217.5" y="-15.5" font-family="sans" font-size="10.00">all</text>
</g>
<!-- 1 -->
<g id="node2" class="node">
<title>1</title>
<path fill="none" stroke="#c6d856" stroke-width="2" d="M235,-108C235,-108 200,-108 200,-108 194,-108 188,-102 188,-96 188,-96 188,-84 188,-84 188,-78 194,-72 200,-72 200,-72 235,-72 235,-72 241,-72 247,-78 247,-84 247,-84 247,-96 247,-96 247,-102 241,-108 235,-108"/>
<text text-anchor="middle" x="217.5" y="-87.5" font-family="sans" font-size="10.00">combine</text>
</g>
<!-- 1&#45;&gt;0 -->
<g id="edge1" class="edge">
<title>1&#45;&gt;0</title>
<path fill="none" stroke="grey" stroke-width="2" d="M217.5,-71.7C217.5,-63.98 217.5,-54.71 217.5,-46.11"/>
<polygon fill="grey" stroke="grey" stroke-width="2" points="221,-46.1 217.5,-36.1 214,-46.1 221,-46.1"/>
</g>
<!-- 2 -->
<g id="node3" class="node">
<title>2</title>
<path fill="none" stroke="#56a2d8" stroke-width="2" d="M159.5,-180C159.5,-180 79.5,-180 79.5,-180 73.5,-180 67.5,-174 67.5,-168 67.5,-168 67.5,-156 67.5,-156 67.5,-150 73.5,-144 79.5,-144 79.5,-144 159.5,-144 159.5,-144 165.5,-144 171.5,-150 171.5,-156 171.5,-156 171.5,-168 171.5,-168 171.5,-174 165.5,-180 159.5,-180"/>
<text text-anchor="middle" x="119.5" y="-159.5" font-family="sans" font-size="10.00">molecular_weight</text>
</g>
<!-- 2&#45;&gt;1 -->
<g id="edge2" class="edge">
<title>2&#45;&gt;1</title>
<path fill="none" stroke="grey" stroke-width="2" d="M143.47,-143.88C156.05,-134.89 171.63,-123.76 185.25,-114.03"/>
<polygon fill="grey" stroke="grey" stroke-width="2" points="187.33,-116.85 193.43,-108.19 183.26,-111.15 187.33,-116.85"/>
</g>
<!-- 3 -->
<g id="node4" class="node">
<title>3</title>
<path fill="none" stroke="#78d856" stroke-width="2" d="M227,-252C227,-252 12,-252 12,-252 6,-252 0,-246 0,-240 0,-240 0,-228 0,-228 0,-222 6,-216 12,-216 12,-216 227,-216 227,-216 233,-216 239,-222 239,-228 239,-228 239,-240 239,-240 239,-246 233,-252 227,-252"/>
<text text-anchor="middle" x="119.5" y="-237" font-family="sans" font-size="10.00">signalP</text>
<text text-anchor="middle" x="119.5" y="-226" font-family="sans" font-size="10.00">sample: solgenomics_Slycopersicum_ITAG4.0</text>
</g>
<!-- 3&#45;&gt;1 -->
<g id="edge3" class="edge">
<title>3&#45;&gt;1</title>
<path fill="none" stroke="grey" stroke-width="2" d="M90.46,-215.84C78.18,-206.87 65.19,-194.68 58.5,-180 51.86,-165.44 49.14,-156.98 58.5,-144 85.48,-106.56 140.05,-95.17 177.68,-91.92"/>
<polygon fill="grey" stroke="grey" stroke-width="2" points="178.07,-95.4 187.8,-91.21 177.58,-88.42 178.07,-95.4"/>
</g>
<!-- 3&#45;&gt;2 -->
<g id="edge7" class="edge">
<title>3&#45;&gt;2</title>
<path fill="none" stroke="grey" stroke-width="2" d="M119.5,-215.7C119.5,-207.98 119.5,-198.71 119.5,-190.11"/>
<polygon fill="grey" stroke="grey" stroke-width="2" points="123,-190.1 119.5,-180.1 116,-190.1 123,-190.1"/>
</g>
<!-- 6 -->
<g id="node7" class="node">
<title>6</title>
<path fill="none" stroke="#d85656" stroke-width="2" d="M233.5,-180C233.5,-180 201.5,-180 201.5,-180 195.5,-180 189.5,-174 189.5,-168 189.5,-168 189.5,-156 189.5,-156 189.5,-150 195.5,-144 201.5,-144 201.5,-144 233.5,-144 233.5,-144 239.5,-144 245.5,-150 245.5,-156 245.5,-156 245.5,-168 245.5,-168 245.5,-174 239.5,-180 233.5,-180"/>
<text text-anchor="middle" x="217.5" y="-159.5" font-family="sans" font-size="10.00">tmhmm</text>
</g>
<!-- 3&#45;&gt;6 -->
<g id="edge8" class="edge">
<title>3&#45;&gt;6</title>
<path fill="none" stroke="grey" stroke-width="2" d="M143.47,-215.88C156.05,-206.89 171.63,-195.76 185.25,-186.03"/>
<polygon fill="grey" stroke="grey" stroke-width="2" points="187.33,-188.85 193.43,-180.19 183.26,-183.15 187.33,-188.85"/>
</g>
<!-- 4 -->
<g id="node5" class="node">
<title>4</title>
<path fill="none" stroke="#56d87b" stroke-width="2" d="M491,-180C491,-180 276,-180 276,-180 270,-180 264,-174 264,-168 264,-168 264,-156 264,-156 264,-150 270,-144 276,-144 276,-144 491,-144 491,-144 497,-144 503,-150 503,-156 503,-156 503,-168 503,-168 503,-174 497,-180 491,-180"/>
<text text-anchor="middle" x="383.5" y="-165" font-family="sans" font-size="10.00">ApoplastP</text>
<text text-anchor="middle" x="383.5" y="-154" font-family="sans" font-size="10.00">sample: solgenomics_Slycopersicum_ITAG4.0</text>
</g>
<!-- 4&#45;&gt;1 -->
<g id="edge4" class="edge">
<title>4&#45;&gt;1</title>
<path fill="none" stroke="grey" stroke-width="2" d="M342.89,-143.88C316.59,-132.79 282.53,-118.42 256.55,-107.47"/>
<polygon fill="grey" stroke="grey" stroke-width="2" points="257.59,-104.11 247.02,-103.45 254.87,-110.56 257.59,-104.11"/>
</g>
<!-- 5 -->
<g id="node6" class="node">
<title>5</title>
<path fill="none" stroke="#d8a456" stroke-width="2" d="M748,-180C748,-180 533,-180 533,-180 527,-180 521,-174 521,-168 521,-168 521,-156 521,-156 521,-150 527,-144 533,-144 533,-144 748,-144 748,-144 754,-144 760,-150 760,-156 760,-156 760,-168 760,-168 760,-174 754,-180 748,-180"/>
<text text-anchor="middle" x="640.5" y="-165" font-family="sans" font-size="10.00">targetP</text>
<text text-anchor="middle" x="640.5" y="-154" font-family="sans" font-size="10.00">sample: solgenomics_Slycopersicum_ITAG4.0</text>
</g>
<!-- 5&#45;&gt;1 -->
<g id="edge5" class="edge">
<title>5&#45;&gt;1</title>
<path fill="none" stroke="grey" stroke-width="2" d="M537.56,-143.97C447.22,-129.01 320.61,-108.06 257.11,-97.56"/>
<polygon fill="grey" stroke="grey" stroke-width="2" points="257.55,-94.08 247.11,-95.9 256.41,-100.99 257.55,-94.08"/>
</g>
<!-- 6&#45;&gt;1 -->
<g id="edge6" class="edge">
<title>6&#45;&gt;1</title>
<path fill="none" stroke="grey" stroke-width="2" d="M217.5,-143.7C217.5,-135.98 217.5,-126.71 217.5,-118.11"/>
<polygon fill="grey" stroke="grey" stroke-width="2" points="221,-118.1 217.5,-108.1 214,-118.1 221,-118.1"/>
</g>
</g>
</svg>
